<?xml version="1.0" encoding="UTF-8" standalone="no"?>
<!-- Created with Inkscape (http://www.inkscape.org/) -->

<svg
   width="37mm"
   height="34.566631mm"
   viewBox="0 0 37 34.566631"
   version="1.1"
   id="svg1"
   xml:space="preserve"
   inkscape:version="1.2.2 (b0a8486541, 2022-12-01)"
   sodipodi:docname="okyanus.svg"
   xmlns:inkscape="http://www.inkscape.org/namespaces/inkscape"
   xmlns:sodipodi="http://sodipodi.sourceforge.net/DTD/sodipodi-0.dtd"
   xmlns="http://www.w3.org/2000/svg"
   xmlns:svg="http://www.w3.org/2000/svg"><sodipodi:namedview
     id="namedview1"
     pagecolor="#ffffff"
     bordercolor="#000000"
     borderopacity="0.25"
     inkscape:showpageshadow="2"
     inkscape:pageopacity="0.0"
     inkscape:pagecheckerboard="0"
     inkscape:deskcolor="#d1d1d1"
     inkscape:document-units="mm"
     showguides="false"
     inkscape:zoom="4.0567375"
     inkscape:cx="105.13374"
     inkscape:cy="53.984267"
     inkscape:window-width="1920"
     inkscape:window-height="1011"
     inkscape:window-x="0"
     inkscape:window-y="32"
     inkscape:window-maximized="1"
     inkscape:current-layer="layer1"
     showgrid="false" /><defs
     id="defs1"><filter
       style="color-interpolation-filters:sRGB"
       inkscape:label="Bump Engraving"
       id="filter22"
       x="-0.0010015995"
       y="-0.0036973348"
       width="1.0020032"
       height="1.0073947"
       inkscape:menu="Bumps"
       inkscape:menu-tooltip="Carving emboss effect"><feColorMatrix
         in="SourceGraphic"
         type="hueRotate"
         values="280"
         result="colormatrix1"
         id="feColorMatrix19" /><feColorMatrix
         type="matrix"
         values="0.5 0 0.5 0 0 0 1 0 0 0 0.5 0 0.5 0 0 0 0 0 1 0 "
         result="colormatrix2"
         id="feColorMatrix20" /><feColorMatrix
         type="hueRotate"
         values="100"
         result="colormatrix3"
         id="feColorMatrix21" /><feBlend
         in2="colormatrix3"
         mode="normal"
         result="blend1"
         id="feBlend21" /><feColorMatrix
         type="matrix"
         values="2.5 -0.75 -0.75 0 0 -0.75 2.5 -0.75 0 0 -0.75 -0.75 2.5 0 0 0 0 0 1 0 "
         result="colormatrix4"
         id="feColorMatrix22" /><feComposite
         in="colormatrix4"
         in2="blend1"
         operator="arithmetic"
         k2="0"
         result="composite1"
         id="feComposite22"
         k1="0"
         k3="0"
         k4="0" /><feBlend
         in2="blend1"
         mode="normal"
         result="fbSourceGraphic"
         id="feBlend22" /><feColorMatrix
         result="fbSourceGraphicAlpha"
         in="fbSourceGraphic"
         values="0 0 0 -1 0 0 0 0 -1 0 0 0 0 -1 0 0 0 0 1 0"
         id="feColorMatrix160" /><feConvolveMatrix
         id="feConvolveMatrix160"
         in="fbSourceGraphic"
         bias="0"
         divisor="0"
         targetX="1"
         targetY="1"
         result="result10"
         kernelMatrix="0 100 0 100 -405 100 0 100 0 "
         order="3 3" /><feColorMatrix
         id="feColorMatrix161"
         values="0 0 0 0 0 0 0 0 0 0 0 0 0 0 0 -0.21 -0.72 -0.07 1 0 "
         in="result10"
         type="matrix"
         result="result2" /><feGaussianBlur
         id="feGaussianBlur161"
         result="result11"
         stdDeviation="0.01" /><feDiffuseLighting
         id="feDiffuseLighting161"
         surfaceScale="15"
         result="result1"
         diffuseConstant="0.5"
         in="result11"
         lighting-color="#ffffff"><feDistantLight
           id="feDistantLight161"
           elevation="10"
           azimuth="225" /></feDiffuseLighting><feComposite
         id="feComposite161"
         in2="fbSourceGraphic"
         in="result1"
         k3="0.5"
         k2="1"
         operator="arithmetic"
         result="result9"
         k1="0"
         k4="0" /><feColorMatrix
         id="feColorMatrix162"
         in="result9"
         type="saturate"
         result="result13"
         values="0" /><feComponentTransfer
         id="feComponentTransfer162"
         result="component1"
         in="result13"><feFuncR
           id="feFuncR162"
           tableValues="0 1 1"
           type="discrete" /><feFuncG
           id="feFuncG162"
           tableValues="0 1 1"
           type="discrete" /><feFuncB
           id="feFuncB162"
           tableValues="0 1 1"
           type="discrete" /></feComponentTransfer><feBlend
         id="feBlend162"
         in2="fbSourceGraphic"
         mode="normal"
         result="result14" /><feComposite
         id="feComposite162"
         in2="fbSourceGraphic"
         in="result14"
         operator="in"
         result="fbSourceGraphic" /></filter><filter
       inkscape:label="Black Light"
       inkscape:menu="Color"
       inkscape:menu-tooltip="Light areas turn to black"
       style="color-interpolation-filters:sRGB"
       id="filter17"
       x="0"
       y="0"
       width="1"
       height="1"><feColorMatrix
         type="luminanceToAlpha"
         result="result2"
         id="feColorMatrix16" /><feComposite
         in2="SourceGraphic"
         operator="arithmetic"
         in="result2"
         k3="2"
         result="result4"
         id="feComposite16"
         k1="0"
         k2="0"
         k4="0" /><feBlend
         in="result4"
         mode="multiply"
         result="result3"
         in2="result2"
         id="feBlend16" /><feComposite
         in2="SourceGraphic"
         operator="in"
         in="result3"
         id="feComposite17" /></filter><filter
       inkscape:label="Black Light"
       inkscape:menu="Color"
       inkscape:menu-tooltip="Light areas turn to black"
       style="color-interpolation-filters:sRGB"
       id="filter17-7"
       x="0"
       y="0"
       width="1"
       height="1"><feColorMatrix
         type="luminanceToAlpha"
         result="result2"
         id="feColorMatrix16-5" /><feComposite
         in2="SourceGraphic"
         operator="arithmetic"
         in="result2"
         k3="2"
         result="result4"
         id="feComposite16-3"
         k1="0"
         k2="0"
         k4="0" /><feBlend
         in="result4"
         mode="multiply"
         result="result3"
         in2="result2"
         id="feBlend16-5" /><feComposite
         in2="SourceGraphic"
         operator="in"
         in="result3"
         id="feComposite17-6" /></filter></defs><g
     inkscape:label="Layer 1"
     inkscape:groupmode="layer"
     id="layer1"
     transform="translate(-23.924111,-199.3346)"><text
       xml:space="preserve"
       style="font-style:normal;font-variant:normal;font-weight:normal;font-stretch:normal;font-size:7.15373px;font-family:'Adobe Jenson Pro';-inkscape-font-specification:'Adobe Jenson Pro, Normal';font-variant-ligatures:normal;font-variant-caps:normal;font-variant-numeric:normal;font-variant-east-asian:normal;letter-spacing:1.5875px;fill:#800080;fill-opacity:1;stroke:none;stroke-width:0.1"
       x="41.524384"
       y="221.79446"
       id="text188"
       transform="scale(1.0015742,0.99842827)"><tspan
         sodipodi:role="line"
         x="41.524384"
         y="221.79446"
         style="font-style:normal;font-variant:normal;font-weight:normal;font-stretch:normal;font-size:7.15373px;font-family:'Adobe Jenson Pro';-inkscape-font-specification:'Adobe Jenson Pro, Normal';font-variant-ligatures:normal;font-variant-caps:normal;font-variant-numeric:normal;font-variant-east-asian:normal;text-align:center;letter-spacing:1.5875px;text-anchor:middle;fill:#4d4d4d;fill-opacity:1;stroke:none;stroke-width:0.1"
         id="tspan188" /></text><g
       id="g13"
       transform="translate(13.896143,-12.553018)"
       style="filter:url(#filter17)"><g
         id="g12"><path
           d="m 10.027968,246.09866 c 0,-0.24064 0.497687,-0.44182 1.105971,-0.44708 1.80374,-0.0156 5.484183,-1.74624 7.753811,-3.64614 1.28868,-1.07877 2.18469,-1.58425 2.287019,-1.29021 0.357434,1.02712 1.973436,3.09891 3.024415,3.87744 1.535818,1.13768 5.400063,1.38299 7.735554,0.49104 0.973684,-0.37184 2.408422,-1.38234 3.188288,-2.24558 l 1.417942,-1.56951 1.190819,1.19082 c 1.340698,1.34068 3.712769,1.63216 5.08962,0.6254 0.664354,-0.48579 0.92727,-0.48579 1.866685,0 0.601375,0.311 1.373861,0.56542 1.716642,0.56542 0.342771,0 0.623232,0.18098 0.623232,0.40217 0,0.52991 -0.733281,0.48196 -2.200714,-0.1438 -0.985095,-0.4201 -1.395672,-0.40977 -2.334801,0.0588 -1.405079,0.70094 -3.427786,0.37922 -4.900841,-0.77949 l -1.072302,-0.84346 -1.185894,1.21299 c -1.820233,1.86175 -3.834255,2.65104 -6.805453,2.667 -3.304538,0.0177 -5.624936,-1.10313 -6.911547,-3.33867 l -0.899629,-1.56312 -1.624301,1.31741 c -0.893365,0.72458 -2.529189,1.76936 -3.635176,2.32173 -2.322938,1.16014 -5.42934,1.81067 -5.42934,1.13697 z m 6.699201,0.0949 c -0.13392,-0.13393 0.560114,-0.75314 1.542311,-1.37604 l 1.785804,-1.13252 1.238078,1.23807 c 1.515452,1.51545 1.229169,2.10162 -0.310361,0.63546 -1.009586,-0.96147 -1.169083,-0.99863 -1.906127,-0.44392 -1.29628,0.97559 -2.089051,1.33961 -2.349705,1.07895 z m 18.23557,-0.004 c 0,-0.15172 0.390693,-0.69159 0.868193,-1.19986 l 0.868211,-0.92415 1.354784,0.83731 c 1.075484,0.66466 1.746363,0.78798 3.254095,0.59805 3.112654,-0.39211 5.719944,-0.11506 5.719944,0.60783 0,0.45221 -0.291131,0.44756 -1.960857,-0.0312 -0.919925,-0.26382 -1.904745,-0.24006 -3.080247,0.0743 -1.438771,0.38482 -2.015122,0.34939 -3.443576,-0.21175 -1.522704,-0.59811 -1.790075,-0.60647 -2.3781,-0.0744 -0.707497,0.64026 -1.202447,0.77357 -1.202447,0.32385 z m -24.934771,-2.13784 c 0,-0.22118 0.407199,-0.40392 0.904888,-0.4061 1.570568,-0.006 4.83244,-1.8261 7.540763,-4.20576 2.465271,-2.16616 5.505827,-4.09244 5.875774,-3.72252 0.09212,0.0921 -0.106399,0.82281 -0.44116,1.62386 -0.83796,2.00552 -0.769664,2.74128 0.416778,4.4896 1.295444,1.90892 1.03412,2.26945 -0.405149,0.55896 -0.939894,-1.11701 -1.070372,-1.58646 -0.954942,-3.436 0.07356,-1.17825 0.07113,-2.14201 -0.0046,-2.14172 -0.308671,9.1e-4 -2.678501,1.83157 -5.020102,3.87725 -2.96913,2.59394 -7.911545,4.69448 -7.911545,3.36243 z m 18.701078,9.1e-4 c 0.44239,-0.19045 1.338429,-0.46224 1.991205,-0.60399 1.10094,-0.23909 2.420734,-1.42156 5.760995,-5.16154 2.528826,-2.83146 2.072592,-1.44915 -0.567365,1.71899 -2.736005,3.28342 -4.596806,4.47691 -6.891348,4.42003 -0.975462,-0.0242 -1.008173,-0.0659 -0.293487,-0.37349 z m -18.701078,-1.9802 c 0,-0.23876 0.369154,-0.43414 0.820359,-0.43414 1.315978,0 3.610367,-1.36688 6.418771,-3.82392 3.853968,-3.37185 6.197348,-4.61338 8.716415,-4.61795 1.654943,-0.003 2.333682,0.20922 3.317946,1.03741 0.680546,0.57265 1.237376,1.36982 1.237376,1.7715 0,0.62059 -0.243111,0.69774 -1.617718,0.51337 -1.211005,-0.16245 -1.817695,-0.0359 -2.413057,0.50276 -0.998295,0.90348 -1.048927,3.06295 -0.0915,3.90369 2.037855,1.78948 4.866929,0.90195 7.339042,-2.30235 2.593715,-3.36196 5.232555,-4.25651 7.086649,-2.40241 1.233476,1.23344 1.080279,1.93168 -0.483342,2.2031 -0.840999,0.14593 -1.21056,0.46553 -1.304745,1.12811 -0.289649,2.03745 2.112381,2.82171 3.796497,1.23959 l 0.901728,-0.84713 0.909268,0.84713 c 0.5001,0.4659 1.237114,0.8471 1.637812,0.8471 0.400673,0 0.728499,0.181 0.728499,0.40219 0,0.56771 -0.817516,0.49523 -2.128844,-0.18877 -0.997471,-0.52028 -1.279217,-0.51165 -2.513588,0.077 -1.293147,0.61666 -1.488431,0.61608 -2.797793,-0.007 -1.124311,-0.53614 -1.407599,-0.9028 -1.407599,-1.82193 0,-1.2467 1.06656,-2.48187 2.143071,-2.48187 0.369679,0 0.672128,-0.14473 0.672128,-0.32177 0,-0.72113 -1.047342,-1.28693 -2.382211,-1.28693 -1.215939,0 -1.755048,0.35663 -3.799469,2.51356 -3.078907,3.24836 -4.118773,3.91534 -6.10931,3.91856 -2.752693,0.004 -4.420391,-2.345 -3.40483,-4.79675 0.480935,-1.1611 1.725383,-1.88918 3.630615,-2.12414 l 1.005437,-0.12402 -1.189923,-0.79959 c -0.828445,-0.5567 -1.781911,-0.78091 -3.138674,-0.73806 -2.162118,0.0682 -3.804583,0.97528 -7.535534,4.16128 -1.216572,1.0389 -2.935873,2.35223 -3.820652,2.91854 -1.824653,1.16788 -4.222817,1.81253 -4.222817,1.13516 z m 17.311849,-1.8196 c -0.624717,-0.75273 -0.39124,-2.31596 0.383792,-2.56964 0.498796,-0.16324 0.515,-0.0903 0.09362,0.42024 -0.661075,0.80123 -0.220845,1.92617 0.753779,1.92617 0.418723,0 0.761321,0.18098 0.761321,0.40218 0,0.61033 -1.445165,0.48054 -1.992495,-0.17895 z m -14.898806,-0.51071 c 3.1e-5,-0.4751 2.69507,-2.52986 3.296437,-2.51328 0.288319,0.007 -0.0187,0.46934 -0.682308,1.02532 -1.521548,1.2748 -2.614144,1.8967 -2.614129,1.48796 z"
           style="fill:#0069ff;fill-opacity:1;stroke-width:1"
           id="path7" /><g
           id="g11"
           style="fill:#000000"><text
             xml:space="preserve"
             style="font-style:normal;font-variant:normal;font-weight:normal;font-stretch:normal;font-size:7.15373px;font-family:'Adobe Jenson Pro';-inkscape-font-specification:'Adobe Jenson Pro, Normal';font-variant-ligatures:normal;font-variant-caps:normal;font-variant-numeric:normal;font-variant-east-asian:normal;letter-spacing:1.5875px;fill:#000000;fill-opacity:1;stroke:none;stroke-width:0.1"
             x="28.396236"
             y="226.99318"
             id="text7"
             transform="scale(1.0015742,0.99842827)"><tspan
               sodipodi:role="line"
               x="29.189987"
               y="226.99318"
               style="font-style:normal;font-variant:normal;font-weight:normal;font-stretch:normal;font-size:7.15373px;font-family:'Adobe Jenson Pro';-inkscape-font-specification:'Adobe Jenson Pro, Normal';font-variant-ligatures:normal;font-variant-caps:normal;font-variant-numeric:normal;font-variant-east-asian:normal;text-align:center;letter-spacing:1.5875px;text-anchor:middle;fill:#000000;fill-opacity:1;stroke:none;stroke-width:0.1"
               id="tspan7">art</tspan></text><g
             id="g10"
             transform="translate(-0.52916728)"
             style="fill:#000000"><text
               xml:space="preserve"
               style="font-style:normal;font-variant:normal;font-weight:normal;font-stretch:normal;font-size:7.15373px;font-family:'Adobe Jenson Pro';-inkscape-font-specification:'Adobe Jenson Pro, Normal';font-variant-ligatures:normal;font-variant-caps:normal;font-variant-numeric:normal;font-variant-east-asian:normal;letter-spacing:1.5875px;fill:#000000;fill-opacity:1;stroke:none;stroke-width:0.1"
               x="23.186836"
               y="217.30255"
               id="text8"
               transform="scale(1.0015742,0.99842827)"><tspan
                 sodipodi:role="line"
                 x="23.980585"
                 y="217.30255"
                 style="font-style:normal;font-variant:normal;font-weight:normal;font-stretch:normal;font-size:7.15373px;font-family:'Adobe Jenson Pro';-inkscape-font-specification:'Adobe Jenson Pro, Normal';font-variant-ligatures:normal;font-variant-caps:normal;font-variant-numeric:normal;font-variant-east-asian:normal;text-align:center;letter-spacing:1.5875px;text-anchor:middle;fill:#000000;fill-opacity:1;stroke:none;stroke-width:0.1"
                 id="tspan8">okyan</tspan></text><text
               xml:space="preserve"
               style="font-style:normal;font-variant:normal;font-weight:normal;font-stretch:normal;font-size:7.15373px;font-family:'Adobe Jenson Pro';-inkscape-font-specification:'Adobe Jenson Pro, Normal';font-variant-ligatures:normal;font-variant-caps:normal;font-variant-numeric:normal;font-variant-east-asian:normal;letter-spacing:1.5875px;fill:#999999;fill-opacity:1;stroke:none;stroke-width:0.1"
               x="36.74036"
               y="217.21201"
               id="text9"
               transform="scale(1.0015742,0.99842827)"><tspan
                 sodipodi:role="line"
                 x="37.534111"
                 y="217.21201"
                 style="font-style:normal;font-variant:normal;font-weight:normal;font-stretch:normal;font-size:7.15373px;font-family:'Adobe Jenson Pro';-inkscape-font-specification:'Adobe Jenson Pro, Normal';font-variant-ligatures:normal;font-variant-caps:normal;font-variant-numeric:normal;font-variant-east-asian:normal;text-align:center;letter-spacing:1.5875px;text-anchor:middle;fill:#999999;fill-opacity:1;stroke:none;stroke-width:0.1"
                 id="tspan9">·</tspan></text><text
               xml:space="preserve"
               style="font-style:normal;font-variant:normal;font-weight:normal;font-stretch:normal;font-size:7.15373px;font-family:'Adobe Jenson Pro';-inkscape-font-specification:'Adobe Jenson Pro, Normal';font-variant-ligatures:normal;font-variant-caps:normal;font-variant-numeric:normal;font-variant-east-asian:normal;letter-spacing:1.5875px;fill:#000000;fill-opacity:1;stroke:none;stroke-width:0.1"
               x="42.715004"
               y="217.23264"
               id="text10"
               transform="scale(1.0015742,0.99842827)"><tspan
                 sodipodi:role="line"
                 x="43.508755"
                 y="217.23264"
                 style="font-style:normal;font-variant:normal;font-weight:normal;font-stretch:normal;font-size:7.15373px;font-family:'Adobe Jenson Pro';-inkscape-font-specification:'Adobe Jenson Pro, Normal';font-variant-ligatures:normal;font-variant-caps:normal;font-variant-numeric:normal;font-variant-east-asian:normal;text-align:center;letter-spacing:1.5875px;text-anchor:middle;fill:#000000;fill-opacity:1;stroke:none;stroke-width:0.1"
                 id="tspan10">us</tspan></text></g></g></g></g></g></svg>
